<?xml version="1.0" standalone="no"?>
<!DOCTYPE svg PUBLIC "-//W3C//DTD SVG 20010904//EN"
 "http://www.w3.org/TR/2001/REC-SVG-20010904/DTD/svg10.dtd">
<svg version="1.0" xmlns="http://www.w3.org/2000/svg"
 width="526.000000pt" height="524.000000pt" viewBox="0 0 526.000000 524.000000"
 preserveAspectRatio="xMidYMid meet">

<g transform="translate(0.000000,524.000000) scale(0.100000,-0.100000)"
fill="#000000" stroke="none">
<path d="M3025 3643 l-18 -28 24 22 c21 19 32 20 97 16 64 -5 71 -7 60 -22
-10 -12 -8 -12 8 2 29 24 37 22 73 -23 l32 -40 -82 0 c-71 0 -86 3 -108 22
-14 13 -20 16 -13 8 20 -23 14 -30 -30 -32 l-43 -1 49 -6 c49 -6 50 -7 67 -56
18 -53 26 -43 10 13 l-10 32 85 0 c61 0 84 -3 84 -12 0 -7 -14 -60 -30 -118
-17 -58 -30 -109 -30 -115 1 -5 21 45 46 113 l46 122 39 0 c21 0 39 -3 39 -8
0 -4 -11 -23 -24 -42 -55 -82 -136 -210 -132 -210 4 0 167 207 213 270 9 13 4
25 -29 68 l-41 52 -182 0 -183 0 -17 -27z m341 -8 c-20 -49 -19 -50 7 -26 27
24 27 24 42 5 23 -30 18 -35 -38 -33 -44 2 -59 7 -92 35 l-38 34 62 0 c52 0
62 -3 57 -15z"/>
<path d="M2951 3561 c-10 -6 -9 -10 3 -14 8 -3 18 -2 21 3 8 13 -9 20 -24 11z"/>
<path d="M2941 3463 c-1 -16 -9 -23 -28 -26 l-28 -4 27 -2 c19 -1 28 -7 31
-23 4 -23 4 -23 6 -1 1 14 9 23 24 26 22 4 22 4 0 6 -14 1 -23 9 -26 24 -4 22
-4 22 -6 0z"/>
<path d="M3161 3440 c0 -8 4 -24 9 -35 5 -13 9 -14 9 -5 0 8 -4 24 -9 35 -5
13 -9 14 -9 5z"/>
<path d="M3061 3383 c-1 -27 -5 -33 -23 -34 l-23 0 23 -9 c15 -7 22 -18 22
-37 l1 -28 14 32 c7 17 22 33 32 36 15 4 15 5 -3 6 -15 1 -24 11 -32 34 l-10
32 -1 -32z"/>
<path d="M600 3095 l0 -135 188 -2 187 -3 5 -475 5 -475 183 -3 182 -2 0 240
0 240 233 0 232 0 0 -238 0 -237 178 -3 177 -2 0 165 0 166 92 -3 92 -3 111
-160 112 -160 181 -3 c119 -2 182 1 182 8 0 5 -49 81 -108 167 -60 87 -117
170 -126 184 l-17 27 44 25 c138 81 215 258 187 433 -27 170 -129 286 -312
352 l-73 27 -360 0 -360 0 -2 -190 c0 -104 -2 -206 -2 -225 l-1 -35 -228 0
-227 0 -3 93 -3 92 181 0 180 0 0 135 0 135 -555 0 -555 0 0 -135z m1830 -146
c97 -22 145 -89 138 -191 -4 -61 -23 -96 -69 -130 -32 -24 -142 -40 -246 -36
l-78 3 -3 183 -2 182 107 0 c60 0 128 -5 153 -11z"/>
<path d="M3030 2615 l0 -615 173 2 172 3 5 210 5 210 265 1 265 1 3 131 3 132
-271 0 -270 0 0 125 0 125 285 0 285 0 0 -470 0 -470 173 2 172 3 5 475 5 475
185 5 185 5 3 79 c2 44 1 104 -3 133 l-6 53 -820 0 -819 0 0 -615z"/>
<path d="M40 1669 c0 -5 5 -7 10 -4 6 3 10 8 10 11 0 2 -4 4 -10 4 -5 0 -10
-5 -10 -11z"/>
</g>
</svg>
